<svg xmlns="http://www.w3.org/2000/svg" viewBox="0 0 399.14 196.86">
  <path fill="#000"
    d="M0 107.17c0,-26.44 25.53,-51.42 54.93,-51.42 25.16,0 33.42,12.67 33.06,22.96 -0.37,4.95 -2.02,7.16 -13.96,7.16l-52.52 0c-0.38,2.92 -0.56,5.87 -0.55,8.82 0,23.86 17.08,39.12 39.86,39.12 17.83,0.18 29.03,-10.11 35.46,-26.08 0.55,-1.11 1.65,-0.56 1.1,0.55 -9.37,25.16 -29.58,42.96 -53.28,42.96 -26.1,0.01 -44.1,-17.62 -44.1,-44.07zm21.68 -22.4c14.14,-0.19 24.25,-0.55 33.06,-0.92 3.5,-0.37 6.43,-1.47 7.35,-2.2 1.84,-1.47 2.57,-4.05 2.57,-7.17 0,-7.16 -4.77,-15.61 -16.9,-15.61 -13.41,0 -23.33,9.37 -26.08,25.9l0 0z" />
  <path fill="#000"
    d="M95.89 112.14c0,-34.9 24.07,-56.39 51.8,-56.39 6.15,0.02 12.2,1.53 17.64,4.41l0 -32.33c0,-15.8 -2.94,-15.8 -12.12,-14.14 -1.48,0.18 -1.48,-1.47 0,-1.66 9.18,-1.65 24.61,-8.44 30.87,-11.93 0.55,-0.37 3.67,0.37 3.67,1.27l0 126.19c0,18 0.19,20.21 9.38,20.21 1.46,0 1.46,1.65 0,1.65 -11.21,0 -24.8,0.55 -30.88,1.83 -1.47,0.37 -2.2,-0.36 -2.2,-1.65 0,-1.1 1.1,-7.9 1.27,-17.63 -9.92,12.86 -21.68,19.28 -34.9,19.28 -21.85,0 -34.53,-17.26 -34.53,-39.11zm48.13 30.48c8.28,0 15.25,-4.96 21.31,-13.04l0 -54.74c-4.23,-7.72 -12.31,-16.53 -22.96,-16.53 -15.8,0 -23.15,13.59 -23.15,43.34 0,23.71 8.45,40.97 24.8,40.97l0 0z" />
  <path fill="#000"
    d="M200.55 107.17c0,-26.44 25.53,-51.42 54.92,-51.42 25.17,0 33.43,12.67 33.07,22.96 -0.37,4.95 -2.02,7.16 -13.96,7.16l-52.54 0c-0.38,2.92 -0.56,5.87 -0.55,8.82 0,23.86 17.09,39.12 41.15,39.12 21.31,0 36,-14.7 43.72,-39.68 0.37,-1.47 1.65,-1.27 1.1,0.37 -5.51,18.55 -17.27,38.02 -31.96,47.94 -8.64,5.69 -17.45,8.81 -28.84,8.81 -28.11,0 -46.11,-17.63 -46.11,-44.08zm21.68 -22.4c14.15,-0.19 24.25,-0.55 33.07,-0.92 3.5,-0.37 6.43,-1.47 7.35,-2.2 1.83,-1.47 2.57,-4.05 2.57,-7.17 0,-7.16 -4.78,-15.61 -16.9,-15.61 -13.42,0 -23.34,9.37 -26.09,25.9z" />
  <path fill="#000"
    d="M295.34 147.77c6.98,0 8.63,-2.21 8.63,-20.21l0 -43.9c0,-5.32 -4.23,-10.1 -8.45,-13.95 -0.55,-0.56 -0.37,-0.92 0,-1.11 3.31,-1.27 19.29,-9.36 22.78,-12.48 0.36,-0.37 0.55,-0.37 1.1,0.18 3.5,3.3 7.53,12.3 7.53,20.02 8.82,-11.75 19.47,-20.57 33.62,-20.57 18,0 29.21,10.65 29.21,37.1l0 38.57c0,15.61 2.57,16.53 8.27,16.35 1.47,0 1.47,1.65 0,1.65 -1.47,0 -21.86,-0.37 -24.8,-0.37 -2.75,0 -10.28,0.37 -15.59,0.37 -1.48,0 -1.48,-1.65 0,-1.65 7.53,0 9.54,-1.28 9.54,-17.45l-0.18 -38.19c-0.19,-19.84 -7.53,-27.37 -18,-27.37 -8.45,0 -14.7,4.04 -21.86,13.59l0 69.42 9.55 0c1.47,0 1.47,1.65 0,1.65 -1.47,0 -20.39,-0.37 -23.33,-0.37 -2.76,0 -12.68,0.37 -18,0.37 -1.49,0 -1.49,-1.65 -0.02,-1.65z" />
  <path fill="#000"
    d="M12.15 196.28l0 -24.12 3.23 0 0 21.4 11.14 0 0 2.72 -14.37 0zm21.67 -2.72l11.96 0 0 2.72 -15.18 0 0 -24.12 14.94 0 0 2.72 -11.72 0 0 7.68 11.15 0 0 2.71 -11.15 0 0 8.29zm33.33 2.72l-2.48 -6.96 -9.85 0 -2.48 6.96 -3.33 0 9.14 -24.12 3.19 0 9.14 24.12 -3.33 0zm-11.38 -9.68l7.95 0 -3.36 -9.41c-0.21,-0.54 -0.38,-1.12 -0.58,-1.84l-0.07 0c-0.2,0.72 -0.37,1.3 -0.58,1.84l-3.36 9.41zm32.81 9.68l-5.91 -10.02 -4.89 0 0 10.02 -3.23 0 0 -24.12 8.94 0c6.32,0 7.98,3.53 7.98,7.07 0,2.72 -1.39,5.67 -5.43,6.59l6.18 10.46 -3.64 0zm-10.8 -21.4l0 8.66 5.34 0c3.73,0 4.95,-1.9 4.95,-4.31 0,-2.48 -1.25,-4.35 -4.95,-4.35l-5.34 0zm19.37 21.4l0 -24.12 3.9 0 10.23 17.56c0.68,1.19 1.12,2.08 1.49,3.1l0.07 0c-0.07,-0.85 -0.1,-1.74 -0.1,-3.2l0 -17.46 2.89 0 0 24.12 -3.91 0 -10.22 -17.56c-0.68,-1.19 -1.13,-2.01 -1.5,-3.09l-0.07 0c0.07,0.85 0.1,1.73 0.1,3.19l0 17.46 -2.88 0zm28.5 0l-3.22 0 0 -24.12 3.22 0 0 24.12zm6.8 0l0 -24.12 3.9 0 10.23 17.56c0.68,1.19 1.12,2.08 1.49,3.1l0.07 0c-0.07,-0.85 -0.1,-1.74 -0.1,-3.2l0 -17.46 2.89 0 0 24.12 -3.91 0 -10.23 -17.56c-0.68,-1.19 -1.12,-2.01 -1.49,-3.09l-0.07 0c0.07,0.85 0.1,1.73 0.1,3.19l0 17.46 -2.88 0zm33.97 0.58c-6.59,0 -10.56,-5.37 -10.56,-12.64 0,-7.37 3.97,-12.64 11.11,-12.64 6.66,0 8.8,4.62 9.2,7.31l-3.19 0.44c-0.34,-2.04 -1.8,-5.03 -6.12,-5.03 -4.92,0 -7.71,4.08 -7.71,9.96 0,5.5 2.52,9.85 7.75,9.85 5.94,0 6.83,-5 6.83,-7.31l0 -0.4 -7.07 0 0 -2.72 9.95 0 0 12.6 -2.34 0 -0.44 -3.87c-1.05,2.61 -3.81,4.45 -7.41,4.45zm33.48 0c-6.59,0 -10.57,-5.37 -10.57,-12.64 0,-7.37 3.98,-12.64 11.11,-12.64 6.66,0 8.8,4.62 9.21,7.31l-3.2 0.44c-0.34,-2.04 -1.8,-5.03 -6.11,-5.03 -4.93,0 -7.71,4.08 -7.71,9.96 0,5.5 2.51,9.85 7.74,9.85 5.95,0 6.83,-5 6.83,-7.31l0 -0.4 -7.06 0 0 -2.72 9.95 0 0 12.6 -2.34 0 -0.45 -3.87c-1.05,2.61 -3.8,4.45 -7.4,4.45zm31.37 -0.58l-2.48 -6.96 -9.85 0 -2.48 6.96 -3.33 0 9.14 -24.12 3.19 0 9.14 24.12 -3.33 0zm-11.38 -9.68l7.95 0 -3.36 -9.41c-0.2,-0.54 -0.37,-1.12 -0.58,-1.84l-0.07 0c-0.2,0.72 -0.37,1.3 -0.57,1.84l-3.37 9.41zm32.82 9.68l-5.92 -10.02 -4.89 0 0 10.02 -3.23 0 0 -24.12 8.94 0c6.32,0 7.98,3.53 7.98,7.07 0,2.72 -1.39,5.67 -5.43,6.59l6.18 10.46 -3.63 0zm-10.81 -21.4l0 8.66 5.34 0c3.73,0 4.96,-1.9 4.96,-4.31 0,-2.48 -1.26,-4.35 -4.96,-4.35l-5.34 0zm19.37 21.4l0 -24.12 7.91 0c6.93,0 11.45,4.86 11.45,12.03 0,7.03 -4.48,12.09 -11.51,12.09l-7.85 0zm3.23 -2.72l4.55 0c5.2,0 8.15,-4.21 8.15,-9.37 0,-5.37 -2.89,-9.31 -8.08,-9.31l-4.62 0 0 18.68zm24.28 0l11.96 0 0 2.72 -15.19 0 0 -24.12 14.95 0 0 2.72 -11.72 0 0 7.68 11.14 0 0 2.71 -11.14 0 0 8.29zm17.57 2.72l0 -24.12 3.91 0 10.23 17.56c0.68,1.19 1.12,2.08 1.49,3.1l0.07 0c-0.07,-0.85 -0.1,-1.74 -0.1,-3.2l0 -17.46 2.89 0 0 24.12 -3.91 0 -10.23 -17.56c-0.68,-1.19 -1.12,-2.01 -1.49,-3.09l-0.07 0c0.07,0.85 0.1,1.73 0.1,3.19l0 17.46 -2.89 0z" />
</svg>